<svg width="500" height="385" viewBox="0 0 500 385" fill="none" xmlns="http://www.w3.org/2000/svg">
<path d="M500 333.4H0V333.65H500V333.4Z" fill="#EBEBEB"/>
<path d="M449.9 349.49H428.22V349.74H449.9V349.49Z" fill="#EBEBEB"/>
<path d="M344.67 344.31H310.56V344.56H344.67V344.31Z" fill="#EBEBEB"/>
<path d="M441.12 340.21H396.59V340.46H441.12V340.21Z" fill="#EBEBEB"/>
<path d="M173.02 345.25H161.88V345.5H173.02V345.25Z" fill="#EBEBEB"/>
<path d="M152.97 345.25H114.58V345.5H152.97V345.25Z" fill="#EBEBEB"/>
<path d="M94.0101 341.03H66.3101V341.28H94.0101V341.03Z" fill="#EBEBEB"/>
<path d="M237 288.8H43.91C42.3973 288.797 40.9475 288.195 39.8788 287.124C38.8102 286.054 38.21 284.603 38.21 283.09V11.66C38.2231 10.156 38.8292 8.71798 39.8964 7.65822C40.9637 6.59846 42.4059 6.00258 43.91 6H237C238.514 6 239.967 6.60159 241.038 7.67242C242.108 8.74325 242.71 10.1956 242.71 11.71V283.09C242.71 284.604 242.108 286.057 241.038 287.128C239.967 288.198 238.514 288.8 237 288.8V288.8ZM43.91 6.2C42.4636 6.20265 41.0774 6.77907 40.0556 7.80273C39.0338 8.82639 38.46 10.2136 38.46 11.66V283.09C38.46 284.536 39.0338 285.924 40.0556 286.947C41.0774 287.971 42.4636 288.547 43.91 288.55H237C238.447 288.547 239.834 287.971 240.858 286.948C241.881 285.924 242.457 284.537 242.46 283.09V11.66C242.457 10.2127 241.881 8.82549 240.858 7.80212C239.834 6.77874 238.447 6.20264 237 6.2H43.91Z" fill="#EBEBEB"/>
<path d="M453.31 288.8H260.21C258.696 288.797 257.246 288.195 256.175 287.125C255.105 286.054 254.503 284.604 254.5 283.09V11.66C254.516 10.1551 255.124 8.71708 256.193 7.65759C257.262 6.59811 258.705 6.00255 260.21 6H453.31C454.812 6.0052 456.252 6.60225 457.317 7.66173C458.382 8.72121 458.987 10.1578 459 11.66V283.09C459 284.601 458.401 286.05 457.335 287.121C456.268 288.191 454.821 288.795 453.31 288.8V288.8ZM260.21 6.2C258.763 6.20264 257.375 6.77874 256.352 7.80212C255.329 8.82549 254.753 10.2127 254.75 11.66V283.09C254.753 284.537 255.329 285.924 256.352 286.948C257.375 287.971 258.763 288.547 260.21 288.55H453.31C454.757 288.547 456.145 287.971 457.168 286.948C458.191 285.924 458.767 284.537 458.77 283.09V11.66C458.767 10.2127 458.191 8.82549 457.168 7.80212C456.145 6.77874 454.757 6.20264 453.31 6.2H260.21Z" fill="#EBEBEB"/>
<path d="M115 125.63C120.546 125.63 125.864 123.427 129.786 119.505C133.707 115.584 135.91 110.265 135.91 104.72C135.91 99.1739 133.707 93.8554 129.786 89.934C125.864 86.0126 120.546 83.8096 115 83.8096H112.43V125.63H115Z" fill="#E0E0E0"/>
<path d="M112.41 125.63C123.958 125.63 133.32 116.268 133.32 104.72C133.32 93.1713 123.958 83.8096 112.41 83.8096C100.862 83.8096 91.5 93.1713 91.5 104.72C91.5 116.268 100.862 125.63 112.41 125.63Z" fill="#F5F5F5"/>
<path d="M111.45 107.34C104.024 107.34 96.9022 104.39 91.6512 99.139C86.4002 93.888 83.4502 86.7661 83.4502 79.34V62.63C83.4502 61.9325 83.7273 61.2635 84.2205 60.7703C84.7137 60.2771 85.3827 60 86.0802 60C86.7777 60 87.4467 60.2771 87.9399 60.7703C88.4331 61.2635 88.7102 61.9325 88.7102 62.63V79.35C88.7155 85.3777 91.1116 91.1571 95.3729 95.4202C99.6342 99.6834 105.413 102.082 111.44 102.09C111.799 102.068 112.158 102.119 112.495 102.241C112.833 102.363 113.142 102.553 113.404 102.799C113.665 103.045 113.874 103.342 114.016 103.671C114.159 104.001 114.232 104.356 114.232 104.715C114.232 105.074 114.159 105.429 114.016 105.759C113.874 106.088 113.665 106.385 113.404 106.631C113.142 106.877 112.833 107.067 112.495 107.189C112.158 107.311 111.799 107.362 111.44 107.34H111.45Z" fill="#E0E0E0"/>
<path d="M62.8302 77.3499H109.35C110.094 77.35 110.828 77.1793 111.496 76.851C112.163 76.5227 112.747 76.0455 113.201 75.4561C113.655 74.8668 113.968 74.1811 114.115 73.4518C114.262 72.7226 114.24 71.9692 114.05 71.2499L110 55.9999C109.727 54.9639 109.119 54.0473 108.271 53.3926C107.422 52.7379 106.382 52.3819 105.31 52.3799H66.8702C65.7975 52.3814 64.7553 52.7371 63.9054 53.3916C63.0555 54.0462 62.4456 54.9631 62.1702 55.9999L58.1702 71.2299C57.9755 71.9474 57.9484 72.7001 58.0909 73.4298C58.2335 74.1594 58.5419 74.8466 58.9923 75.4381C59.4427 76.0296 60.023 76.5097 60.6885 76.8411C61.354 77.1726 62.0868 77.3467 62.8302 77.3499V77.3499Z" fill="#F5F5F5"/>
<path d="M410.28 125.63C415.826 125.63 421.144 123.427 425.066 119.505C428.987 115.584 431.19 110.265 431.19 104.72C431.19 99.1739 428.987 93.8554 425.066 89.934C421.144 86.0126 415.826 83.8096 410.28 83.8096H407.71V125.63H410.28Z" fill="#E0E0E0"/>
<path d="M407.71 125.63C419.258 125.63 428.62 116.268 428.62 104.72C428.62 93.1713 419.258 83.8096 407.71 83.8096C396.162 83.8096 386.8 93.1713 386.8 104.72C386.8 116.268 396.162 125.63 407.71 125.63Z" fill="#F5F5F5"/>
<path d="M406.75 107.34C399.324 107.34 392.202 104.39 386.951 99.139C381.7 93.888 378.75 86.7661 378.75 79.34V62.63C378.75 61.9325 379.027 61.2635 379.52 60.7703C380.014 60.2771 380.682 60 381.38 60C382.078 60 382.746 60.2771 383.24 60.7703C383.733 61.2635 384.01 61.9325 384.01 62.63V79.35C384.015 85.3777 386.411 91.1571 390.673 95.4202C394.934 99.6834 400.712 102.082 406.74 102.09C407.098 102.068 407.457 102.119 407.795 102.241C408.133 102.363 408.442 102.553 408.704 102.799C408.965 103.045 409.174 103.342 409.316 103.671C409.459 104.001 409.532 104.356 409.532 104.715C409.532 105.074 409.459 105.429 409.316 105.759C409.174 106.088 408.965 106.385 408.704 106.631C408.442 106.877 408.133 107.067 407.795 107.189C407.457 107.311 407.098 107.362 406.74 107.34H406.75Z" fill="#E0E0E0"/>
<path d="M358.13 77.3504H404.65C405.394 77.3505 406.128 77.1798 406.795 76.8515C407.463 76.5232 408.046 76.046 408.5 75.4566C408.954 74.8673 409.267 74.1816 409.414 73.4523C409.561 72.7231 409.539 71.9697 409.35 71.2504L405.35 56.0204C405.076 54.9844 404.468 54.0678 403.62 53.4131C402.772 52.7584 401.731 52.4024 400.66 52.4004H362.17C361.097 52.4019 360.055 52.7576 359.205 53.4121C358.355 54.0667 357.745 54.9836 357.47 56.0204L353.47 71.2504C353.278 71.9666 353.254 72.7171 353.398 73.4442C353.543 74.1713 353.852 74.8557 354.302 75.4447C354.752 76.0338 355.331 76.5118 355.994 76.8422C356.658 77.1725 357.388 77.3464 358.13 77.3504V77.3504Z" fill="#F5F5F5"/>
<path d="M133.98 266.86H149.19V207.93H133.98V266.86Z" fill="#E6E6E6"/>
<path d="M92.75 266.85H143.22L150.84 197.88H100.37L92.75 266.85Z" fill="#F0F0F0"/>
<path d="M87.2798 266.85H139.42L147.04 197.88H94.9098L87.2798 266.85Z" fill="#F5F5F5"/>
<path d="M135.65 261.42L142.07 203.32H98.67L92.25 261.42H135.65Z" fill="white"/>
<path d="M126.69 247.33L127 245C128.61 230.42 119.51 217.43 107.69 217.43L107.42 219.8C105.81 234.37 114.91 247.36 126.74 247.36L126.69 247.33Z" fill="#F5F5F5"/>
<path d="M59.0902 333.4H103.93L103.93 266.85H59.0902L59.0902 333.4Z" fill="#E6E6E6"/>
<path d="M63.5901 333.4H59.0801V320.57H68.3201L63.5901 333.4Z" fill="#F0F0F0"/>
<path d="M184.76 333.4H229.6V266.85H184.76V333.4Z" fill="#E6E6E6"/>
<path d="M59.0799 325.53H188.69V266.86H59.0799V325.53Z" fill="#F0F0F0"/>
<path d="M184.18 333.4H188.69V320.57H179.45L184.18 333.4Z" fill="#F0F0F0"/>
<path d="M62.5799 294.2H185.19V270.52H62.5799V294.2Z" fill="#E6E6E6"/>
<path d="M115.71 286H132.06C135.575 286.001 139.054 285.286 142.283 283.896C145.512 282.507 148.424 280.473 150.84 277.92H96.9302C99.3474 280.472 102.259 282.505 105.488 283.894C108.717 285.283 112.195 286 115.71 286V286Z" fill="#F0F0F0"/>
<path d="M62.5799 321.7H185.19V298.02H62.5799V321.7Z" fill="#E6E6E6"/>
<path d="M115.71 313.46H132.06C135.575 313.461 139.054 312.745 142.283 311.356C145.512 309.967 148.424 307.933 150.84 305.38H96.9302C99.3474 307.932 102.259 309.965 105.488 311.354C108.717 312.743 112.195 313.46 115.71 313.46V313.46Z" fill="#F0F0F0"/>
<path d="M180.48 264.14H181.64C181.64 261.75 181.64 255.7 181.76 241.83C181.97 216.68 182.37 215.15 182.37 215.15L179.61 226.76C177.86 239.61 180.12 252.53 180.48 264.14Z" fill="#E6E6E6"/>
<path d="M178.19 225C174.19 220.27 165.74 218.89 157.06 217.71C153.65 217.25 166.01 225.04 172.06 230.57C176.76 234.87 179.76 236.06 181.06 240.34C181.72 235 181.61 229.11 178.19 225Z" fill="#E6E6E6"/>
<path d="M183.46 233.48C187.46 228.75 195.91 227.38 204.59 226.2C208 225.74 195.59 233.53 189.59 239.06C184.89 243.36 181.89 244.55 180.59 248.83C179.93 243.49 180 237.56 183.46 233.48Z" fill="#E6E6E6"/>
<path d="M181.76 214C184.76 208.34 192.22 203 200.63 201C203.93 200.21 192.98 211.44 188.82 218.69C185.59 224.31 181.31 230.93 180.64 235.69C179.64 226.31 178.78 219.69 181.76 214Z" fill="#E6E6E6"/>
<path d="M181.4 266.85C177.86 266.85 174.93 265.08 174.72 262.8L174.13 258.92H188.68L188.08 262.8C187.88 265.08 185 266.85 181.4 266.85Z" fill="#F0F0F0"/>
<path d="M189.62 260.41H173.19L172.72 256.08H190.09L189.62 260.41Z" fill="#F0F0F0"/>
<path d="M169.54 177.72L329.75 177.72V31.5897L169.54 31.5897L169.54 177.72Z" fill="#E6E6E6"/>
<path d="M165.94 177.72L328.18 177.72V31.5897L165.94 31.5897L165.94 177.72Z" fill="#F5F5F5"/>
<path d="M321.7 171.18V38.1396L172.4 38.1396V171.18H321.7Z" fill="#FAFAFA"/>
<path d="M303.39 171.18L244.63 38.1396H224.67L283.43 171.18H303.39Z" fill="white"/>
<path d="M277.77 171.18L219.01 38.1396H205.27L264.03 171.18H277.77Z" fill="white"/>
<path d="M227.84 171.17V38.1299H220.12V171.17H227.84Z" fill="#E6E6E6"/>
<path d="M279.16 171.17V38.1299H271.44V171.17H279.16Z" fill="#E6E6E6"/>
<path d="M226.45 175.33V33.2695H216.69V175.33H226.45Z" fill="#F5F5F5"/>
<path d="M277.77 175.33V33.2695H268.01V175.33H277.77Z" fill="#F5F5F5"/>
<path d="M173.1 171.18V38.1396H172.41V171.18H173.1Z" fill="#E6E6E6"/>
<path d="M163.22 23.1699H336.78C337.002 23.1725 337.214 23.2619 337.371 23.4188C337.528 23.5758 337.617 23.788 337.62 24.0099C337.617 24.231 337.528 24.4421 337.37 24.5974C337.213 24.7528 337.001 24.8399 336.78 24.8399H163.22C162.999 24.8399 162.787 24.7528 162.629 24.5974C162.472 24.4421 162.383 24.231 162.38 24.0099V24.0099C162.382 23.788 162.472 23.5758 162.629 23.4188C162.786 23.2619 162.998 23.1725 163.22 23.1699Z" fill="#E6E6E6"/>
<path d="M329.75 28.68C330.048 28.6774 330.333 28.5571 330.543 28.3455C330.752 28.1339 330.87 27.848 330.87 27.55V25.13C330.871 24.9821 330.843 24.8354 330.788 24.6983C330.732 24.5613 330.65 24.4366 330.546 24.3316C330.441 24.2265 330.318 24.1431 330.181 24.0862C330.045 24.0293 329.898 24 329.75 24V24C329.452 24 329.166 24.1177 328.955 24.3274C328.743 24.5372 328.623 24.822 328.62 25.12V27.54C328.62 27.8406 328.739 28.1291 328.95 28.3426C329.162 28.5561 329.45 28.6774 329.75 28.68V28.68Z" fill="#E6E6E6"/>
<path d="M175.8 28.68C176.099 28.6774 176.385 28.5575 176.596 28.3461C176.808 28.1348 176.928 27.8489 176.93 27.55V25.13C176.93 24.8303 176.811 24.5429 176.599 24.331C176.387 24.1191 176.1 24 175.8 24V24C175.503 24 175.218 24.118 175.008 24.328C174.798 24.5381 174.68 24.823 174.68 25.12V27.54C174.679 27.6884 174.707 27.8356 174.762 27.9732C174.818 28.1108 174.9 28.2361 175.004 28.342C175.108 28.4478 175.232 28.5322 175.369 28.5902C175.505 28.6482 175.652 28.6787 175.8 28.68Z" fill="#E6E6E6"/>
<path opacity="0.6" d="M163.48 138.44L325.61 138.44V24.0004L163.48 24.0004V138.44Z" fill="#E0E0E0"/>
<path d="M340.29 210.97H312.33C309.359 210.97 306.95 213.378 306.95 216.35V229.29C306.95 232.261 309.359 234.67 312.33 234.67H340.29C343.261 234.67 345.67 232.261 345.67 229.29V216.35C345.67 213.378 343.261 210.97 340.29 210.97Z" fill="#FAFAFA"/>
<path d="M343.86 206.59H308.76C307.761 206.59 306.95 207.4 306.95 208.4V209.86C306.95 210.859 307.761 211.67 308.76 211.67H343.86C344.86 211.67 345.67 210.859 345.67 209.86V208.4C345.67 207.4 344.86 206.59 343.86 206.59Z" fill="#E6E6E6"/>
<path d="M307.52 261C307.52 261 308.03 277.67 327.45 277.67C346.87 277.67 347.38 261 347.38 261H307.52Z" fill="#F0F0F0"/>
<path d="M351.8 261C351.8 261 352.31 277.67 371.73 277.67C391.15 277.67 391.66 261 391.66 261H351.8Z" fill="#F0F0F0"/>
<path d="M382.04 200.24H343.64C339.553 200.24 336.24 203.553 336.24 207.64V227.28C336.24 231.367 339.553 234.68 343.64 234.68H382.04C386.127 234.68 389.44 231.367 389.44 227.28V207.64C389.44 203.553 386.127 200.24 382.04 200.24Z" fill="#F0F0F0"/>
<path d="M386.96 194.22H338.72C337.351 194.22 336.24 195.33 336.24 196.7V198.72C336.24 200.089 337.351 201.2 338.72 201.2H386.96C388.33 201.2 389.44 200.089 389.44 198.72V196.7C389.44 195.33 388.33 194.22 386.96 194.22Z" fill="#F5F5F5"/>
<path d="M292.89 333.4H297.93V250.76H292.89V333.4Z" fill="#E6E6E6"/>
<path d="M438.42 234.67H411.13V250.75H438.42V234.67Z" fill="#E6E6E6"/>
<path d="M275.44 250.76L411.12 250.76V234.68L275.44 234.68V250.76Z" fill="#F5F5F5"/>
<path d="M438.42 277.62H411.13V293.7H438.42V277.62Z" fill="#E6E6E6"/>
<path d="M275.44 293.7H411.12V277.62H275.44V293.7Z" fill="#F5F5F5"/>
<path d="M428.57 333.4H433.61V250.76H428.57V333.4Z" fill="#E6E6E6"/>
<path d="M406.09 333.4H411.13V250.76H406.09V333.4Z" fill="#F5F5F5"/>
<path d="M275.44 333.4H280.48V250.76H275.44V333.4Z" fill="#F5F5F5"/>
<path d="M250 378.56C357.082 378.56 443.89 373.492 443.89 367.24C443.89 360.988 357.082 355.92 250 355.92C142.917 355.92 56.1099 360.988 56.1099 367.24C56.1099 373.492 142.917 378.56 250 378.56Z" fill="#F5F5F5"/>
<path d="M260.41 316.5H132.84C130.789 316.471 128.824 315.668 127.34 314.251C125.857 312.834 124.963 310.908 124.84 308.86L113.4 87.3102C113.337 86.3247 113.477 85.3368 113.814 84.4083C114.15 83.4798 114.674 82.6308 115.354 81.9144C116.034 81.1981 116.854 80.6298 117.764 80.2454C118.673 79.8609 119.653 79.6685 120.64 79.6802H248.21C250.261 79.7068 252.225 80.5082 253.709 81.9235C255.193 83.3389 256.086 85.2632 256.21 87.3102L267.63 308.86C267.693 309.844 267.553 310.831 267.218 311.759C266.883 312.686 266.361 313.535 265.683 314.252C265.006 314.969 264.188 315.538 263.281 315.925C262.374 316.312 261.396 316.508 260.41 316.5V316.5Z" fill="#407BFF"/>
<path opacity="0.8" d="M260.41 316.5H132.84C130.789 316.471 128.824 315.668 127.34 314.251C125.857 312.834 124.963 310.908 124.84 308.86L113.4 87.3102C113.337 86.3247 113.477 85.3368 113.814 84.4083C114.15 83.4798 114.674 82.6308 115.354 81.9144C116.034 81.1981 116.854 80.6298 117.764 80.2454C118.673 79.8609 119.653 79.6685 120.64 79.6802H248.21C250.261 79.7068 252.225 80.5082 253.709 81.9235C255.193 83.3389 256.086 85.2632 256.21 87.3102L267.63 308.86C267.693 309.844 267.553 310.831 267.218 311.759C266.883 312.686 266.361 313.535 265.683 314.252C265.006 314.969 264.188 315.538 263.281 315.925C262.374 316.312 261.396 316.508 260.41 316.5V316.5Z" fill="white"/>
<path d="M235.62 72.46H221.51V73.46H235.62V72.46Z" fill="#407BFF"/>
<path d="M216.62 72.46H211.45V73.46H216.62V72.46Z" fill="#407BFF"/>
<path d="M265.9 302.44H143.9C141.936 302.421 140.051 301.658 138.626 300.306C137.201 298.953 136.342 297.111 136.22 295.15L125.3 83.2497C125.24 82.3066 125.374 81.3611 125.696 80.4726C126.018 79.584 126.52 78.7716 127.171 78.0862C127.822 77.4008 128.607 76.8572 129.477 76.4896C130.348 76.1219 131.285 75.9381 132.23 75.9497H254.23C256.195 75.9714 258.078 76.7365 259.501 78.091C260.924 79.4454 261.782 81.2887 261.9 83.2497L272.82 295.15C272.881 296.092 272.746 297.036 272.425 297.923C272.104 298.81 271.602 299.622 270.953 300.306C270.303 300.991 269.519 301.534 268.649 301.901C267.78 302.268 266.844 302.451 265.9 302.44Z" fill="#407BFF"/>
<path d="M265.9 297.57H143.9C143.185 297.546 142.503 297.259 141.985 296.765C141.467 296.271 141.148 295.604 141.09 294.89L130.16 83.0004C130.135 82.7185 130.171 82.4346 130.264 82.1674C130.357 81.9002 130.505 81.6558 130.7 81.4504C130.895 81.2454 131.131 81.0841 131.393 80.9772C131.655 80.8704 131.937 80.8203 132.22 80.8304H254.22C254.934 80.8573 255.613 81.145 256.129 81.6388C256.645 82.1327 256.962 82.7985 257.02 83.5104L268 295.4C268.024 295.681 267.989 295.964 267.896 296.23C267.803 296.496 267.655 296.74 267.461 296.945C267.268 297.15 267.033 297.311 266.772 297.419C266.512 297.527 266.232 297.578 265.95 297.57H265.9ZM132.22 81.0804C131.971 81.0723 131.724 81.1162 131.493 81.2092C131.262 81.3021 131.054 81.4422 130.88 81.6204C130.713 81.805 130.585 82.0217 130.505 82.2572C130.424 82.4927 130.392 82.7421 130.41 82.9904L141.33 294.88C141.386 295.529 141.677 296.136 142.148 296.585C142.62 297.034 143.239 297.296 143.89 297.32H265.89C266.137 297.33 266.384 297.287 266.613 297.194C266.843 297.101 267.049 296.96 267.22 296.78C267.391 296.598 267.521 296.382 267.602 296.146C267.683 295.91 267.713 295.659 267.69 295.41L256.78 83.5204C256.727 82.8723 256.438 82.2661 255.968 81.8165C255.498 81.367 254.88 81.1051 254.23 81.0804H132.22Z" fill="white"/>
<path opacity="0.3" d="M223.227 158.056C237.103 143.817 236.199 120.431 221.209 105.823C206.218 91.2141 182.817 90.9148 168.94 105.154C155.064 119.393 155.968 142.779 170.959 157.388C185.949 171.996 209.351 172.295 223.227 158.056Z" fill="white"/>
<path d="M226 131.61C226.28 136.524 225.291 141.428 223.13 145.85C220.79 150.593 217.158 154.579 212.651 157.348C208.145 160.117 202.948 161.556 197.66 161.5C192.179 161.451 186.805 159.984 182.059 157.241C177.314 154.499 173.359 150.574 170.58 145.85C167.99 141.53 166.5 136.64 166.24 131.61C165.993 127.752 166.546 123.885 167.862 120.251C169.179 116.616 171.232 113.293 173.892 110.488C176.552 107.683 179.762 105.458 183.322 103.951C186.882 102.444 190.714 101.688 194.58 101.73C202.625 101.814 210.339 104.943 216.169 110.488C221.999 116.032 225.512 123.58 226 131.61V131.61Z" fill="white"/>
<path d="M223.1 145.85C220.76 150.593 217.128 154.579 212.622 157.348C208.116 160.116 202.919 161.556 197.63 161.5C192.15 161.451 186.775 159.983 182.03 157.241C177.284 154.498 173.329 150.574 170.55 145.85C178.15 140.602 187.175 137.81 196.41 137.85C205.892 137.886 215.162 140.664 223.1 145.85V145.85Z" fill="#407BFF"/>
<path d="M205.348 130.915C210.347 125.785 210.019 117.358 204.616 112.093C199.213 106.827 190.781 106.718 185.781 111.848C180.782 116.978 181.11 125.405 186.513 130.67C191.916 135.935 200.348 136.045 205.348 130.915Z" fill="#407BFF"/>
<path d="M248.41 220H152.88C152.048 219.992 151.25 219.668 150.647 219.095C150.044 218.521 149.68 217.741 149.63 216.91L148.91 202.91C148.885 202.512 148.943 202.113 149.079 201.738C149.216 201.363 149.428 201.02 149.703 200.731C149.978 200.442 150.31 200.213 150.678 200.058C151.045 199.903 151.441 199.825 151.84 199.83H247.37C248.2 199.839 248.997 200.161 249.6 200.732C250.202 201.303 250.567 202.082 250.62 202.91L251.34 216.91C251.366 217.309 251.31 217.709 251.174 218.086C251.038 218.462 250.826 218.806 250.551 219.096C250.275 219.386 249.943 219.616 249.575 219.772C249.206 219.928 248.81 220.005 248.41 220V220Z" fill="white"/>
<path opacity="0.3" d="M219.16 192.1H179.26C178.425 192.094 177.623 191.77 177.017 191.195C176.412 190.619 176.048 189.834 176 189L175.85 186C175.824 185.601 175.88 185.201 176.016 184.825C176.152 184.449 176.364 184.105 176.639 183.815C176.915 183.525 177.247 183.294 177.615 183.139C177.984 182.983 178.38 182.905 178.78 182.91H218.67C219.502 182.919 220.3 183.243 220.903 183.816C221.506 184.389 221.869 185.17 221.92 186L222.08 189C222.105 189.399 222.047 189.798 221.912 190.173C221.776 190.548 221.565 190.892 221.291 191.183C221.017 191.473 220.687 191.704 220.321 191.862C219.954 192.02 219.559 192.101 219.16 192.1V192.1Z" fill="black"/>
<path opacity="0.3" d="M234 287.31H174.23C172.815 287.292 171.458 286.74 170.433 285.765C169.407 284.789 168.788 283.462 168.7 282.05L168.35 275.15C168.315 274.471 168.418 273.793 168.653 273.156C168.889 272.519 169.251 271.937 169.719 271.445C170.187 270.953 170.75 270.561 171.375 270.294C171.999 270.026 172.671 269.889 173.35 269.89H233.1C234.515 269.907 235.872 270.459 236.897 271.434C237.923 272.41 238.542 273.737 238.63 275.15L238.98 282.05C239.015 282.726 238.913 283.403 238.678 284.038C238.444 284.674 238.083 285.255 237.618 285.747C237.152 286.239 236.591 286.631 235.969 286.9C235.347 287.168 234.677 287.308 234 287.31V287.31Z" fill="black"/>
<path d="M250.16 253.86H154.62C153.789 253.849 152.992 253.525 152.39 252.952C151.787 252.379 151.423 251.6 151.37 250.77L150.65 236.77C150.625 236.371 150.683 235.972 150.819 235.596C150.956 235.221 151.168 234.877 151.443 234.587C151.718 234.298 152.049 234.067 152.417 233.911C152.785 233.755 153.181 233.676 153.58 233.68H249.11C249.942 233.688 250.74 234.012 251.343 234.585C251.946 235.159 252.31 235.939 252.36 236.77L253.09 250.77C253.113 251.168 253.055 251.567 252.918 251.942C252.781 252.317 252.569 252.659 252.294 252.949C252.019 253.239 251.688 253.469 251.321 253.625C250.954 253.782 250.559 253.862 250.16 253.86V253.86Z" fill="white"/>
<path d="M165 209.91C165.028 210.352 164.964 210.795 164.812 211.211C164.661 211.627 164.426 212.008 164.121 212.329C163.816 212.65 163.448 212.904 163.04 213.077C162.632 213.249 162.193 213.335 161.75 213.33C160.83 213.319 159.949 212.961 159.283 212.326C158.617 211.692 158.216 210.829 158.16 209.91C158.131 209.469 158.194 209.026 158.344 208.61C158.494 208.194 158.729 207.814 159.033 207.493C159.337 207.171 159.705 206.917 160.112 206.744C160.519 206.572 160.958 206.485 161.4 206.49C162.321 206.501 163.204 206.86 163.871 207.494C164.539 208.128 164.942 208.991 165 209.91V209.91Z" fill="#263238"/>
<path d="M175.53 209.91C175.559 210.352 175.497 210.794 175.346 211.211C175.196 211.627 174.962 212.007 174.657 212.328C174.353 212.649 173.986 212.904 173.579 213.077C173.171 213.249 172.733 213.336 172.29 213.33C171.37 213.322 170.487 212.964 169.82 212.329C169.154 211.694 168.753 210.829 168.7 209.91C168.671 209.469 168.734 209.026 168.884 208.61C169.034 208.194 169.269 207.814 169.573 207.493C169.877 207.171 170.245 206.917 170.652 206.744C171.059 206.572 171.498 206.485 171.94 206.49C172.861 206.499 173.744 206.857 174.41 207.492C175.077 208.127 175.477 208.991 175.53 209.91V209.91Z" fill="#263238"/>
<path d="M186 209.91C186.029 210.352 185.966 210.794 185.816 211.211C185.666 211.627 185.431 212.007 185.127 212.328C184.823 212.649 184.456 212.904 184.048 213.077C183.641 213.249 183.202 213.336 182.76 213.33C181.839 213.32 180.957 212.961 180.289 212.327C179.621 211.693 179.218 210.829 179.16 209.91C179.133 209.469 179.196 209.026 179.348 208.61C179.499 208.193 179.735 207.813 180.04 207.492C180.345 207.171 180.713 206.917 181.12 206.744C181.528 206.572 181.967 206.485 182.41 206.49C183.33 206.501 184.211 206.86 184.877 207.495C185.543 208.129 185.945 208.992 186 209.91Z" fill="#263238"/>
<path d="M196.55 209.91C196.577 210.351 196.514 210.793 196.363 211.209C196.212 211.624 195.978 212.004 195.674 212.325C195.37 212.646 195.003 212.901 194.596 213.074C194.19 213.247 193.752 213.334 193.31 213.33C192.389 213.32 191.506 212.961 190.839 212.327C190.171 211.693 189.768 210.829 189.71 209.91C189.682 209.469 189.746 209.027 189.897 208.612C190.047 208.196 190.282 207.817 190.586 207.496C190.89 207.175 191.257 206.92 191.663 206.747C192.07 206.574 192.508 206.487 192.95 206.49C193.871 206.501 194.753 206.86 195.421 207.494C196.089 208.128 196.492 208.991 196.55 209.91V209.91Z" fill="#263238"/>
<path d="M166.77 243.75C166.799 244.192 166.736 244.634 166.586 245.05C166.436 245.466 166.201 245.847 165.897 246.168C165.593 246.489 165.226 246.744 164.818 246.917C164.411 247.089 163.972 247.175 163.53 247.17C162.609 247.16 161.727 246.801 161.059 246.167C160.391 245.533 159.988 244.669 159.93 243.75C159.903 243.308 159.966 242.866 160.118 242.449C160.269 242.033 160.505 241.653 160.81 241.332C161.115 241.011 161.483 240.756 161.89 240.584C162.298 240.412 162.737 240.325 163.18 240.33C164.1 240.341 164.981 240.7 165.647 241.335C166.313 241.969 166.715 242.832 166.77 243.75Z" fill="#263238"/>
<path d="M177.28 243.75C177.307 244.191 177.244 244.633 177.093 245.049C176.942 245.464 176.708 245.844 176.404 246.165C176.1 246.486 175.733 246.741 175.326 246.914C174.92 247.087 174.482 247.174 174.04 247.17C173.119 247.16 172.236 246.801 171.569 246.167C170.901 245.533 170.498 244.669 170.44 243.75C170.411 243.309 170.474 242.866 170.624 242.45C170.774 242.034 171.009 241.654 171.313 241.332C171.617 241.011 171.984 240.757 172.392 240.584C172.799 240.412 173.238 240.325 173.68 240.33C174.601 240.341 175.484 240.7 176.151 241.334C176.819 241.968 177.222 242.831 177.28 243.75Z" fill="#263238"/>
<path d="M187.79 243.75C187.818 244.192 187.754 244.635 187.603 245.051C187.451 245.467 187.216 245.848 186.911 246.169C186.606 246.49 186.238 246.744 185.83 246.917C185.422 247.089 184.983 247.175 184.54 247.17C183.62 247.162 182.737 246.804 182.07 246.169C181.404 245.534 181.003 244.669 180.95 243.75C180.921 243.309 180.984 242.866 181.134 242.45C181.284 242.034 181.519 241.654 181.823 241.332C182.127 241.011 182.495 240.757 182.902 240.584C183.309 240.412 183.748 240.325 184.19 240.33C185.111 240.341 185.994 240.7 186.661 241.334C187.329 241.968 187.732 242.831 187.79 243.75Z" fill="#263238"/>
<path d="M198.29 243.75C198.319 244.192 198.256 244.634 198.106 245.05C197.956 245.466 197.722 245.847 197.417 246.168C197.113 246.489 196.746 246.744 196.338 246.917C195.931 247.089 195.492 247.175 195.05 247.17C194.129 247.16 193.247 246.801 192.579 246.167C191.911 245.533 191.508 244.669 191.45 243.75C191.423 243.308 191.486 242.866 191.638 242.449C191.789 242.033 192.025 241.653 192.33 241.332C192.635 241.011 193.003 240.756 193.41 240.584C193.818 240.412 194.257 240.325 194.7 240.33C195.621 240.339 196.503 240.697 197.17 241.332C197.836 241.967 198.237 242.831 198.29 243.75Z" fill="#263238"/>
<path d="M208.8 243.75C208.829 244.192 208.766 244.634 208.616 245.05C208.466 245.466 208.231 245.847 207.927 246.168C207.623 246.489 207.255 246.744 206.848 246.916C206.441 247.089 206.002 247.175 205.56 247.17C204.639 247.159 203.756 246.801 203.089 246.167C202.421 245.532 202.018 244.669 201.96 243.75C201.932 243.309 201.996 242.867 202.147 242.452C202.297 242.036 202.532 241.656 202.836 241.336C203.14 241.015 203.507 240.76 203.913 240.587C204.32 240.414 204.758 240.327 205.2 240.33C206.121 240.341 207.003 240.699 207.671 241.334C208.339 241.968 208.742 242.831 208.8 243.75Z" fill="#263238"/>
<path d="M219.31 243.75C219.338 244.192 219.274 244.635 219.123 245.051C218.971 245.467 218.736 245.848 218.431 246.169C218.126 246.49 217.758 246.744 217.35 246.917C216.942 247.089 216.503 247.175 216.06 247.17C215.14 247.159 214.259 246.801 213.593 246.166C212.927 245.532 212.526 244.668 212.47 243.75C212.441 243.309 212.504 242.866 212.654 242.45C212.804 242.034 213.039 241.654 213.343 241.332C213.647 241.011 214.015 240.757 214.422 240.584C214.829 240.412 215.268 240.325 215.71 240.33C216.631 240.341 217.514 240.7 218.181 241.334C218.849 241.968 219.252 242.831 219.31 243.75V243.75Z" fill="#263238"/>
<path d="M333 127.62C333.25 128 333.38 128.2 333.54 128.47L333.99 129.21C334.28 129.71 334.54 130.21 334.79 130.7C335.29 131.7 335.79 132.7 336.19 133.7C337.029 135.686 337.75 137.72 338.35 139.79C339.561 143.88 340.358 148.081 340.73 152.33L340.8 153.12C340.809 153.28 340.809 153.44 340.8 153.6V154.13C340.817 154.826 340.777 155.521 340.68 156.21C340.489 157.487 340.153 158.738 339.68 159.94C338.802 162.086 337.638 164.105 336.22 165.94C333.576 169.327 330.438 172.296 326.91 174.75L324.15 171.52C326.662 168.684 328.886 165.605 330.79 162.33C331.647 160.844 332.319 159.259 332.79 157.61C332.981 156.912 333.092 156.194 333.12 155.47C333.151 155.161 333.151 154.849 333.12 154.54V154.33C333.13 154.237 333.13 154.143 333.12 154.05L333 153.35C332.357 149.623 331.448 145.947 330.28 142.35C329.7 140.56 328.99 138.83 328.28 137.14C327.93 136.29 327.53 135.46 327.13 134.66L326.51 133.48L326.2 132.93L325.94 132.49L333 127.62Z" fill="#803E3C"/>
<path d="M323.7 174.77L327.32 182.42L330.19 175.95C330.19 175.95 327.64 170.35 324.19 170.87L323.7 174.77Z" fill="#7F3E3B"/>
<path d="M329.91 182.8L332.79 178.08L330.19 175.95L327.32 182.42L329.91 182.8Z" fill="#7F3E3B"/>
<path d="M313.63 359.22C314.379 359.202 315.123 359.101 315.85 358.92C315.887 358.909 315.92 358.888 315.946 358.86C315.973 358.832 315.991 358.798 316 358.76C316.006 358.722 316.001 358.682 315.985 358.647C315.969 358.611 315.943 358.581 315.91 358.56C315.62 358.37 313.08 356.73 312.1 357.17C311.991 357.221 311.898 357.3 311.83 357.398C311.761 357.496 311.72 357.611 311.71 357.73C311.68 357.911 311.694 358.097 311.751 358.271C311.809 358.445 311.908 358.603 312.04 358.73C312.493 359.08 313.058 359.255 313.63 359.22V359.22ZM315.28 358.63C313.83 358.93 312.73 358.88 312.28 358.49C312.188 358.399 312.121 358.286 312.084 358.162C312.047 358.038 312.042 357.907 312.07 357.78C312.07 357.61 312.17 357.56 312.24 357.53C312.78 357.29 314.25 358 315.28 358.63V358.63Z" fill="#407BFF"/>
<path d="M315.8 358.92H315.9C315.93 358.901 315.955 358.874 315.972 358.843C315.99 358.812 315.999 358.776 316 358.74C316 358.64 316 356.23 315.08 355.42C314.967 355.319 314.834 355.243 314.689 355.198C314.544 355.153 314.39 355.141 314.24 355.16C314.082 355.162 313.93 355.217 313.808 355.317C313.686 355.417 313.602 355.556 313.57 355.71C313.38 356.66 314.9 358.46 315.7 358.92H315.8ZM314.37 355.53C314.451 355.528 314.532 355.542 314.607 355.571C314.683 355.6 314.752 355.644 314.81 355.7C315.338 356.478 315.61 357.401 315.59 358.34C314.79 357.7 313.84 356.34 313.96 355.77C313.96 355.68 314.03 355.56 314.28 355.53H314.37Z" fill="#407BFF"/>
<path d="M304.19 355.14C304.213 355.111 304.228 355.076 304.234 355.039C304.239 355.002 304.234 354.964 304.22 354.929C304.206 354.894 304.182 354.864 304.152 354.841C304.123 354.819 304.087 354.805 304.05 354.8C303.64 354.8 300.05 354.63 299.23 355.51V355.57C299.162 355.657 299.118 355.76 299.102 355.868C299.086 355.977 299.099 356.088 299.14 356.19C299.193 356.362 299.288 356.518 299.415 356.645C299.542 356.773 299.698 356.867 299.87 356.92C301.03 357.28 303.08 355.97 304.2 355.16L304.19 355.14ZM299.53 355.77C299.98 355.29 301.96 355.16 303.44 355.18C301.89 356.24 300.6 356.74 299.95 356.54C299.836 356.506 299.733 356.444 299.65 356.36C299.566 356.277 299.504 356.174 299.47 356.06C299.45 356.022 299.439 355.979 299.439 355.935C299.439 355.892 299.45 355.849 299.47 355.81L299.53 355.77Z" fill="#407BFF"/>
<path d="M304.19 355.14C304.205 355.109 304.213 355.075 304.213 355.04C304.213 355.005 304.205 354.971 304.19 354.94C304.14 354.86 303.02 352.94 301.7 352.54C301.51 352.484 301.311 352.468 301.115 352.492C300.919 352.516 300.73 352.58 300.56 352.68C300.08 352.96 300.05 353.29 300.11 353.5C300.37 354.43 302.92 355.25 304.02 355.24C304.054 355.239 304.088 355.23 304.118 355.212C304.148 355.195 304.172 355.17 304.19 355.14ZM300.6 353.14C300.656 353.085 300.72 353.037 300.79 353C300.913 352.921 301.052 352.871 301.197 352.852C301.343 352.833 301.49 352.846 301.63 352.89C302.5 353.12 303.31 354.24 303.68 354.79C302.49 354.66 300.68 353.93 300.53 353.37C300.517 353.327 300.517 353.282 300.529 353.24C300.542 353.197 300.566 353.159 300.6 353.13V353.14Z" fill="#407BFF"/>
<path d="M315.201 98.3301C314.201 103.33 312.041 114.14 315.511 117.46C315.511 117.46 314.151 122.46 304.921 122.46C294.761 122.46 300.071 117.46 300.071 117.46C305.611 116.14 305.471 112.02 304.501 108.16L315.201 98.3301Z" fill="#7F3E3B"/>
<path d="M298.28 86.6096C298.336 86.6187 298.394 86.6187 298.45 86.6096C298.497 86.5862 298.54 86.5536 298.575 86.5137C298.609 86.4739 298.636 86.4274 298.653 86.3772C298.669 86.327 298.676 86.2739 298.672 86.2211C298.668 86.1683 298.654 86.1168 298.63 86.0696C298.361 85.4992 297.959 85.0016 297.458 84.6188C296.957 84.236 296.371 83.979 295.75 83.8696C295.646 83.8609 295.542 83.8923 295.46 83.9573C295.379 84.0224 295.325 84.1162 295.31 84.2196C295.299 84.3242 295.329 84.4291 295.395 84.5115C295.46 84.5938 295.555 84.6471 295.66 84.6596V84.6596C296.15 84.7537 296.611 84.9634 297.004 85.2712C297.397 85.579 297.711 85.9761 297.92 86.4296C297.959 86.4887 298.012 86.5366 298.076 86.5682C298.139 86.5998 298.209 86.6141 298.28 86.6096Z" fill="#263238"/>
<path d="M295.25 91C294.463 92.4598 293.481 93.8055 292.33 95C292.642 95.285 293.011 95.4988 293.414 95.6265C293.816 95.7543 294.241 95.793 294.66 95.74L295.25 91Z" fill="#630F0F"/>
<path d="M296 89.8701C295.92 90.5401 295.49 91.0401 295.06 90.9901C294.63 90.9401 294.33 90.3501 294.41 89.6801C294.49 89.0101 294.92 88.5101 295.41 88.5601C295.9 88.6101 296.07 89.2001 296 89.8701Z" fill="#263238"/>
<path d="M295.54 88.62L294 88C294 88 294.65 89.32 295.54 88.62Z" fill="#263238"/>
<path d="M313.02 353.24L304.86 355.14L299.9 336.38L308.06 334.48L313.02 353.24Z" fill="#7F3E3B"/>
<path d="M325.54 358.72H317.17L317.82 339.33H326.2L325.54 358.72Z" fill="#7F3E3B"/>
<path d="M316.501 357.75H325.911C326.074 357.749 326.232 357.807 326.355 357.913C326.478 358.02 326.559 358.168 326.581 358.33L327.651 365.77C327.672 365.958 327.653 366.149 327.595 366.329C327.537 366.509 327.442 366.675 327.315 366.816C327.189 366.957 327.034 367.069 326.86 367.146C326.687 367.222 326.5 367.261 326.311 367.26C323.031 367.21 321.451 367.01 317.311 367.01C314.761 367.01 311.041 367.28 307.531 367.28C304.021 367.28 303.821 363.8 305.291 363.49C311.851 362.07 312.891 360.13 315.101 358.27C315.491 357.936 315.987 357.752 316.501 357.75Z" fill="#263238"/>
<path d="M304.14 353.89L312.69 349.96C312.836 349.891 313.001 349.877 313.156 349.921C313.31 349.965 313.444 350.064 313.53 350.2L317.62 356.52C317.716 356.682 317.776 356.863 317.798 357.051C317.819 357.238 317.801 357.428 317.744 357.608C317.688 357.788 317.594 357.954 317.469 358.096C317.345 358.237 317.192 358.351 317.02 358.43C314.02 359.75 312.5 360.24 308.74 361.97C306.43 363.03 301.74 365.47 298.56 366.97C295.38 368.47 293.74 365.36 294.94 364.46C300.31 360.46 301.85 357.59 303.08 354.98C303.288 354.499 303.666 354.111 304.14 353.89V353.89Z" fill="#263238"/>
<path opacity="0.2" d="M299.9 336.38L302.56 346.44L310.62 344.15L308.07 334.48L299.9 336.38Z" fill="black"/>
<path opacity="0.2" d="M326.2 339.33H317.82L317.49 349.33H325.87L326.2 339.33Z" fill="black"/>
<path d="M330 119.36C333.48 120.13 337.2 132.64 337.2 132.64L327.36 143.11C327.36 143.11 319.19 131.35 320.86 127.03C322.55 122.52 325.85 118.46 330 119.36Z" fill="#263238"/>
<path opacity="0.4" d="M324.44 127.33C322.68 125.72 321.49 126.2 320.68 127.48C319.88 131.2 324.62 138.99 326.53 141.94C327.41 138.42 328.42 131 324.44 127.33Z" fill="black"/>
<path d="M285.91 119.61C285.91 119.61 281.91 121.01 289.91 170.16H323.91C323.34 156.32 323.32 147.78 329.91 119.36C325.146 118.377 320.317 117.742 315.46 117.46C310.32 117.09 305.16 117.09 300.02 117.46C293.43 118.07 285.91 119.61 285.91 119.61Z" fill="#263238"/>
<path opacity="0.4" d="M285.601 138.47C285.821 140.86 286.111 143.55 286.491 146.59C289.281 144.08 291.561 136.94 290.721 132.78C288.727 134.398 287 136.318 285.601 138.47Z" fill="black"/>
<path d="M289.24 131.001C287.405 135.618 285.339 140.141 283.05 144.551C280.787 149.12 278.109 153.471 275.05 157.551L274.41 158.34L274.09 158.73C273.98 158.86 273.89 158.981 273.72 159.161C273.118 159.817 272.448 160.407 271.72 160.921C270.434 161.811 269.026 162.511 267.54 163.001C264.948 163.828 262.258 164.306 259.54 164.421C254.45 164.623 249.354 164.169 244.38 163.071L244.93 158.87C247.23 158.87 249.64 158.87 251.93 158.68C254.23 158.567 256.521 158.314 258.79 157.921C260.897 157.592 262.958 157.014 264.93 156.201C265.726 155.86 266.47 155.409 267.14 154.861C267.395 154.646 267.627 154.405 267.83 154.141C267.83 154.141 267.95 153.98 268.03 153.87L268.26 153.54L268.73 152.881C271.239 149.005 273.475 144.958 275.42 140.771C277.42 136.521 279.42 132.111 281.25 127.771L289.24 131.001Z" fill="#803E3C"/>
<path d="M285.91 119.61C281.74 120.61 276.62 132.05 276.62 132.05L285.26 144.75C285.26 144.75 296.77 130.26 295.4 125.84C294 121.23 291 118.37 285.91 119.61Z" fill="#263238"/>
<path d="M247.33 159.51L240.12 156.18L239.4 163.35C239.4 163.35 245.4 165.12 248.4 163.35L247.33 159.51Z" fill="#7F3E3B"/>
<path d="M235.81 155.46L235.12 160.92L239.4 163.35L240.12 156.18L235.81 155.46Z" fill="#7F3E3B"/>
<path d="M318.82 90.36C317.29 98.53 316.82 102.03 312.14 105.74C305.14 111.32 295.39 107.66 294.45 99.2C293.59 91.58 296.23 79.5 304.7 77.2C306.566 76.6853 308.533 76.6571 310.412 77.1181C312.292 77.5792 314.022 78.5141 315.438 79.8337C316.854 81.1533 317.908 82.8136 318.5 84.6563C319.093 86.499 319.203 88.4627 318.82 90.36V90.36Z" fill="#7F3E3B"/>
<path d="M300.871 92.0802C300.401 96.2502 300.221 107.08 309.381 107.42C320.591 107.83 323.951 98.2502 322.951 94.4202C328.791 89.6702 329.631 81.5002 323.071 75.2502C316.511 69.0002 302.071 72.4902 298.071 78.5802C293.001 86.1302 300.871 92.0802 300.871 92.0802Z" fill="#263238"/>
<path d="M312.1 77.68C311.56 73.28 311.98 70.25 316.1 70.25C320.22 70.25 325.84 71.74 327.9 75.95C329.96 80.16 330.13 86.75 324.38 86.08C318.63 85.41 312.75 82.94 312.1 77.68Z" fill="#407BFF"/>
<path d="M318.48 76.6201C317.48 71.3801 322.17 56.6201 333.56 55.6201C338.84 55.1701 341.28 60.8501 338.56 61.7901C343.56 61.7301 346.76 68.3401 342.1 69.3301C345.78 71.6901 344.87 76.5301 339.62 78.9101C335.71 80.7101 319.83 83.8801 318.48 76.6201Z" fill="#263238"/>
<path d="M330.65 82.25C326.98 82.25 323.15 81.71 320.77 80.12C320.105 79.7189 319.544 79.1649 319.136 78.5041C318.727 77.8433 318.482 77.0946 318.42 76.32C318.417 76.2543 318.439 76.1898 318.482 76.1397C318.525 76.0896 318.585 76.0575 318.65 76.05C318.683 76.0458 318.717 76.0486 318.749 76.0581C318.781 76.0677 318.811 76.0838 318.836 76.1054C318.861 76.1271 318.882 76.1538 318.896 76.1838C318.911 76.2139 318.919 76.2467 318.92 76.28C318.98 76.979 319.205 77.6539 319.575 78.2498C319.945 78.8458 320.45 79.3461 321.05 79.71C325.58 82.71 336.05 81.71 339.31 80.71C342.13 79.79 344.04 78 344.42 75.94C344.539 75.1841 344.445 74.4101 344.151 73.704C343.856 72.9979 343.371 72.3873 342.75 71.94C342.726 71.9176 342.707 71.8905 342.694 71.8604C342.681 71.8303 342.674 71.7978 342.674 71.765C342.674 71.7322 342.681 71.6998 342.694 71.6697C342.707 71.6396 342.726 71.6125 342.75 71.59C342.797 71.5442 342.86 71.5186 342.925 71.5186C342.991 71.5186 343.053 71.5442 343.1 71.59C343.798 72.0993 344.341 72.7927 344.668 73.5927C344.994 74.3926 345.092 75.2677 344.95 76.12C344.54 78.37 342.51 80.29 339.51 81.27C336.615 81.9997 333.634 82.3294 330.65 82.25V82.25Z" fill="#263238"/>
<path d="M298.32 90.9997C297.389 92.3059 297.005 93.9243 297.25 95.5097C297.58 97.6097 299.62 97.7497 301.1 96.4097C302.58 95.0697 303.87 92.6497 302.78 90.9097C302.538 90.5338 302.203 90.2262 301.809 90.0161C301.414 89.806 300.972 89.7005 300.525 89.7095C300.078 89.7185 299.641 89.8418 299.255 90.0677C298.869 90.2935 298.547 90.6143 298.32 90.9997Z" fill="#7F3E3B"/>
<path d="M298.891 170.16C298.891 170.16 303.751 227.65 308.801 260.05C312.871 286.22 316.091 347.39 316.091 347.39H327.511C327.511 347.39 331.571 288.05 329.511 262.17C324.281 196.67 335.951 191.33 323.941 170.17L298.891 170.16Z" fill="#407BFF"/>
<path opacity="0.4" d="M313.27 191.89C308.745 196.64 305.092 202.151 302.48 208.17C303.81 221.09 305.39 235.43 307.07 247.99C313.964 230.143 316.101 210.811 313.27 191.89V191.89Z" fill="black"/>
<path d="M290.9 169.8C290.9 169.8 280.35 232.59 278.69 260.89C282.83 287.06 299.77 342.38 299.77 342.38L310.16 338.61C310.16 338.61 304.41 278.29 298.16 261.78C312.23 214.41 322.57 202.43 319.56 170.16C312.35 170.16 290.9 169.8 290.9 169.8Z" fill="#407BFF"/>
<path d="M298.38 345.14L312.42 341.33L311.62 335.73L296.59 339.8L298.38 345.14Z" fill="#263238"/>
<path d="M314.52 347.62H329.07L329.83 342.52L314.44 342L314.52 347.62Z" fill="#263238"/>
<path d="M324.441 168.16L325.971 171.21C326.091 171.45 325.811 171.69 325.421 171.69H289.741C289.441 171.69 289.181 171.54 289.161 171.34L288.851 168.34C288.851 168.13 289.101 167.95 289.431 167.95H323.881C323.984 167.936 324.089 167.948 324.187 167.984C324.285 168.021 324.372 168.081 324.441 168.16V168.16Z" fill="#407BFF"/>
<path opacity="0.5" d="M324.441 168.16L325.971 171.21C326.091 171.45 325.811 171.69 325.421 171.69H289.741C289.441 171.69 289.181 171.54 289.161 171.34L288.851 168.34C288.851 168.13 289.101 167.95 289.431 167.95H323.881C323.984 167.936 324.089 167.948 324.187 167.984C324.285 168.021 324.372 168.081 324.441 168.16V168.16Z" fill="black"/>
<path d="M319.81 172H320.73C320.92 172 321.06 171.9 321.05 171.79L320.61 167.79C320.61 167.67 320.44 167.58 320.26 167.58H319.33C319.15 167.58 319.01 167.67 319.02 167.79L319.45 171.79C319.47 171.92 319.63 172 319.81 172Z" fill="#407BFF"/>
<path d="M307.43 142.88C307.32 142.878 307.213 142.842 307.125 142.775C307.037 142.709 306.972 142.616 306.94 142.51C303.68 130.45 296.94 120.51 293.67 119.01C293.416 118.854 293.111 118.804 292.82 118.87C292.76 118.902 292.693 118.921 292.625 118.926C292.557 118.932 292.489 118.923 292.424 118.901C292.36 118.878 292.3 118.843 292.25 118.797C292.2 118.751 292.159 118.695 292.131 118.633C292.103 118.571 292.088 118.504 292.087 118.435C292.086 118.367 292.099 118.299 292.125 118.236C292.151 118.173 292.19 118.116 292.239 118.069C292.288 118.021 292.346 117.984 292.41 117.96C292.683 117.86 292.975 117.82 293.265 117.844C293.556 117.869 293.837 117.956 294.09 118.1C297.55 119.74 304.39 129.54 307.81 141.87C310.26 141.87 314.04 141.54 314.96 141.46C316.1 140.1 324.48 129.62 321.35 118.15C321.332 118.087 321.327 118.021 321.335 117.956C321.342 117.891 321.363 117.828 321.396 117.771C321.429 117.714 321.472 117.664 321.525 117.625C321.577 117.585 321.636 117.556 321.7 117.54C321.827 117.506 321.963 117.524 322.077 117.59C322.191 117.655 322.275 117.763 322.31 117.89C325.8 130.65 315.68 142.16 315.57 142.27C315.531 142.319 315.482 142.359 315.427 142.388C315.372 142.417 315.312 142.435 315.25 142.44C315.2 142.44 310.21 142.88 307.43 142.88Z" fill="#407BFF"/>
<path d="M324 149.94C318.55 139.73 316.32 139.01 315.35 135.73C316.085 133.896 317.134 132.204 318.45 130.73C317.79 130.54 316.37 130.26 315.45 130.09C315.55 129.64 315.66 129.2 315.76 128.77C314.759 128.658 313.746 128.706 312.76 128.91V127.91C311.49 127.634 310.185 127.55 308.89 127.66C309.003 128.134 309.113 128.614 309.22 129.1C308.22 129.29 306.7 129.6 305.97 129.81C307.388 131.417 308.43 133.32 309.02 135.38C306.08 140.43 294.66 172.89 313.24 175.38C331.82 177.87 329.44 160.16 324 149.94Z" fill="#407BFF"/>
<path opacity="0.4" d="M324 149.94C318.55 139.73 316.32 139.01 315.35 135.73C316.085 133.896 317.134 132.204 318.45 130.73C317.79 130.54 316.37 130.26 315.45 130.09C315.55 129.64 315.66 129.2 315.76 128.77C314.759 128.658 313.746 128.706 312.76 128.91V127.91C311.49 127.634 310.185 127.55 308.89 127.66C309.003 128.134 309.113 128.614 309.22 129.1C308.22 129.29 306.7 129.6 305.97 129.81C307.388 131.417 308.43 133.32 309.02 135.38C306.08 140.43 294.66 172.89 313.24 175.38C331.82 177.87 329.44 160.16 324 149.94Z" fill="white"/>
<path d="M308.26 134.41C308.145 134.925 308.094 135.452 308.11 135.98C308.11 136.35 309.11 136.6 310.22 136.71C311.33 136.82 315.99 137 315.84 136.48C315.69 135.96 316.07 135.25 316.09 134.81C316.11 134.37 314.24 134.35 312.67 134.41C311.1 134.47 308.57 133.85 308.26 134.41Z" fill="#407BFF"/>
<path d="M297.45 172H298.37C298.55 172 298.69 171.9 298.68 171.79L298.25 167.79C298.25 167.67 298.08 167.58 297.89 167.58H297C296.82 167.58 296.68 167.67 296.69 167.79L297.12 171.79C297.1 171.92 297.26 172 297.45 172Z" fill="#407BFF"/>
</svg>
